<svg xmlns="http://www.w3.org/2000/svg" viewBox="0 0 280 180" fill="none">
  <defs>
    <linearGradient id="bg" x1="0" y1="0" x2="280" y2="180" gradientUnits="userSpaceOnUse">
      <stop offset="0%" stop-color="#667eea"/>
      <stop offset="100%" stop-color="#764ba2"/>
    </linearGradient>
    <linearGradient id="playBg" x1="0" y1="0" x2="1" y2="1">
      <stop offset="0%" stop-color="#ec4899"/>
      <stop offset="100%" stop-color="#f472b6"/>
    </linearGradient>
  </defs>
  <!-- 배경 -->
  <rect width="280" height="180" rx="12" fill="url(#bg)"/>
  <!-- 필름 스트립 장식 (상단) -->
  <rect x="0" y="0" width="280" height="20" rx="12" fill="rgba(0,0,0,0.2)"/>
  <rect x="12" y="5" width="14" height="10" rx="2" fill="rgba(255,255,255,0.3)"/>
  <rect x="32" y="5" width="14" height="10" rx="2" fill="rgba(255,255,255,0.3)"/>
  <rect x="52" y="5" width="14" height="10" rx="2" fill="rgba(255,255,255,0.3)"/>
  <rect x="72" y="5" width="14" height="10" rx="2" fill="rgba(255,255,255,0.3)"/>
  <rect x="92" y="5" width="14" height="10" rx="2" fill="rgba(255,255,255,0.3)"/>
  <rect x="112" y="5" width="14" height="10" rx="2" fill="rgba(255,255,255,0.3)"/>
  <rect x="132" y="5" width="14" height="10" rx="2" fill="rgba(255,255,255,0.3)"/>
  <rect x="152" y="5" width="14" height="10" rx="2" fill="rgba(255,255,255,0.3)"/>
  <rect x="172" y="5" width="14" height="10" rx="2" fill="rgba(255,255,255,0.3)"/>
  <rect x="192" y="5" width="14" height="10" rx="2" fill="rgba(255,255,255,0.3)"/>
  <rect x="212" y="5" width="14" height="10" rx="2" fill="rgba(255,255,255,0.3)"/>
  <rect x="232" y="5" width="14" height="10" rx="2" fill="rgba(255,255,255,0.3)"/>
  <rect x="252" y="5" width="14" height="10" rx="2" fill="rgba(255,255,255,0.3)"/>
  <!-- 필름 스트립 장식 (하단) -->
  <rect x="0" y="160" width="280" height="20" rx="12" fill="rgba(0,0,0,0.2)"/>
  <rect x="12" y="165" width="14" height="10" rx="2" fill="rgba(255,255,255,0.3)"/>
  <rect x="32" y="165" width="14" height="10" rx="2" fill="rgba(255,255,255,0.3)"/>
  <rect x="52" y="165" width="14" height="10" rx="2" fill="rgba(255,255,255,0.3)"/>
  <rect x="72" y="165" width="14" height="10" rx="2" fill="rgba(255,255,255,0.3)"/>
  <rect x="92" y="165" width="14" height="10" rx="2" fill="rgba(255,255,255,0.3)"/>
  <rect x="112" y="165" width="14" height="10" rx="2" fill="rgba(255,255,255,0.3)"/>
  <rect x="132" y="165" width="14" height="10" rx="2" fill="rgba(255,255,255,0.3)"/>
  <rect x="152" y="165" width="14" height="10" rx="2" fill="rgba(255,255,255,0.3)"/>
  <rect x="172" y="165" width="14" height="10" rx="2" fill="rgba(255,255,255,0.3)"/>
  <rect x="192" y="165" width="14" height="10" rx="2" fill="rgba(255,255,255,0.3)"/>
  <rect x="212" y="165" width="14" height="10" rx="2" fill="rgba(255,255,255,0.3)"/>
  <rect x="232" y="165" width="14" height="10" rx="2" fill="rgba(255,255,255,0.3)"/>
  <rect x="252" y="165" width="14" height="10" rx="2" fill="rgba(255,255,255,0.3)"/>
  <!-- 재생 버튼 -->
  <circle cx="140" cy="90" r="30" fill="url(#playBg)" opacity="0.9"/>
  <polygon points="132,75 132,105 158,90" fill="white"/>
  <!-- 텍스트 -->
  <text x="140" y="140" text-anchor="middle" font-family="sans-serif" font-size="12" font-weight="600" fill="rgba(255,255,255,0.7)">VIDEO</text>
</svg>
